<?xml version="1.0" encoding="UTF-8" standalone="no"?> <svg id="Layer_1" data-name="Layer 1" xmlns="http://www.w3.org/2000/svg" viewBox="0 0 512 512"><title>SIM Card</title><path d="M384,490.667H128a64.073,64.073,0,0,1-64-64V85.333a64.073,64.073,0,0,1,64-64H302.327a63.585,63.585,0,0,1,45.255,18.745l81.673,81.673A63.585,63.585,0,0,1,448,167.006v259.66A64.073,64.073,0,0,1,384,490.667ZM128,64a21.357,21.357,0,0,0-21.333,21.333V426.667A21.357,21.357,0,0,0,128,448H384a21.357,21.357,0,0,0,21.333-21.333V167.006a21.19,21.19,0,0,0-6.249-15.084L317.411,70.249A21.19,21.19,0,0,0,302.327,64Z"/><path d="M341.333,405.333H170.667A21.333,21.333,0,0,1,149.333,384V277.333A21.333,21.333,0,0,1,170.667,256H341.333a21.333,21.333,0,0,1,21.333,21.333V384A21.333,21.333,0,0,1,341.333,405.333ZM192,362.667H320v-64H192Z"/></svg>