<?xml version="1.0" encoding="iso-8859-1"?>
<!-- Uploaded to: SVG Repo, www.svgrepo.com, Generator: SVG Repo Mixer Tools -->
<!DOCTYPE svg PUBLIC "-//W3C//DTD SVG 1.1//EN" "http://www.w3.org/Graphics/SVG/1.1/DTD/svg11.dtd">
<svg fill="#000000" height="800px" width="800px" version="1.1" id="Capa_1" xmlns="http://www.w3.org/2000/svg" xmlns:xlink="http://www.w3.org/1999/xlink" 
	 viewBox="0 0 275.072 275.072" xml:space="preserve">
<g>
	<path d="M163.789,0h-52.507c-11.271,0-20.44,9.169-20.44,20.439v234.193c0,11.27,9.169,20.439,20.44,20.439h52.507
		c11.271,0,20.44-9.169,20.44-20.439V20.439C184.229,9.169,175.06,0,163.789,0z M111.283,15h52.507c2.999,0,5.44,2.44,5.44,5.439
		v93.891h-63.386V20.439C105.843,17.44,108.284,15,111.283,15z M163.789,260.072h-52.507c-2.999,0-5.44-2.44-5.44-5.439V129.33
		h63.386v125.303C169.229,257.632,166.788,260.072,163.789,260.072z"/>
	<path d="M132.08,31.951h10.91c2.762,0,5-2.239,5-5c0-2.761-2.238-5-5-5h-10.91c-2.762,0-5,2.239-5,5
		C127.08,29.712,129.319,31.951,132.08,31.951z"/>
	<circle cx="123.69" cy="95.041" r="10.097"/>
	<circle cx="151.383" cy="95.041" r="10.097"/>
	<circle cx="123.69" cy="150.761" r="10.097"/>
	<circle cx="123.69" cy="180.7" r="10.097"/>
	<path d="M151.383,140.948c-5.576,0-10.097,4.52-10.097,10.097v29.37c0,5.577,4.521,10.098,10.097,10.098
		c5.576,0,10.097-4.52,10.097-10.098v-29.37C161.48,145.469,156.959,140.948,151.383,140.948z"/>
</g>
</svg>