<svg width="175" height="65" viewBox="0 0 175 65" fill="none" xmlns="http://www.w3.org/2000/svg"><path d="M3.753 63.72l.002.001c.038.016.076.033.115.047.032.012.075.023.126.035.448.14.924.219 1.418.222H30.42l-16.4-16.44-.01.01c-3.032 3.013-5.037 5.004-6.513 6.476a493.553 493.553 0 0 0-3.039 3.047 6640.024 6640.024 0 0 0-1.746 1.742l-.002.002c-.51.54-.823 1.322-.823 2.123 0 1.258.771 2.286 1.866 2.736z" fill="#FF4F12"/><path d="M1.887 60.985c0-.801.313-1.582.823-2.122l.002-.003 1.746-1.742c.83-.842 1.727-1.74 3.038-3.047 1.477-1.472 3.482-3.463 6.515-6.477l.009-.008 2.955-2.937.059-.059c4.91-4.88 11.9-11.832 22.147-22.04L16.663.025l-12.75 12.76C.104 16.596.62 19.089.62 24.206v35.01a4.804 4.804 0 0 0 3.134 4.506c-1.095-.45-1.866-1.477-1.866-2.736z" fill="#70F"/><path d="M144.268 40.963h-3.752l-4.481 4.53v-4.53h-3.173v12.484h3.173v-5.16l4.557 5.16h3.827l-5.892-6.695 5.741-5.789zM43.699 35.828h-8.006v17.62h3.323v-6.142h4.683c3.978 0 6.596-2.039 6.596-5.739 0-3.7-2.618-5.739-6.596-5.739zm-.1 8.508h-4.583v-5.538h4.582c2.316 0 3.374 1.108 3.374 2.77 0 1.66-1.058 2.768-3.374 2.768zM57.797 40.61c-3.424 0-6.823 2.216-6.823 6.595 0 4.38 3.399 6.595 6.823 6.595 3.424 0 6.823-2.215 6.823-6.595s-3.399-6.594-6.823-6.594zm0 10.22c-1.863 0-3.6-1.334-3.6-3.625 0-2.29 1.737-3.624 3.6-3.624s3.6 1.334 3.6 3.624-1.737 3.625-3.6 3.625zM72.72 50.83c-1.914 0-3.324-1.385-3.324-3.625 0-2.215 1.46-3.624 3.323-3.624 1.134 0 2.116.528 2.896 1.711l2.719-1.56c-.906-1.938-2.87-3.121-5.59-3.121-3.55 0-6.57 2.617-6.57 6.594 0 3.977 2.87 6.595 6.57 6.595 2.67 0 4.457-1.208 5.716-3.348l-2.618-1.434c-.756 1.057-1.561 1.812-3.123 1.812zM106.497 48.036c-.151 1.913-.529 2.34-1.184 2.34-.447 0-.657-.049-.963-.129l.016 3.23s.394.121 1.124.121c2.694 0 3.701-1.736 3.953-5.436l.302-4.355h3.575v9.615h3.173V40.963h-9.467l-.529 7.073zM97.499 40.61c-3.625 0-6.571 2.644-6.571 6.595 0 3.952 2.946 6.595 6.42 6.595 2.744 0 4.481-1.032 5.74-3.172l-2.517-1.258c-.78.982-1.486 1.711-3.173 1.711-1.863 0-3.222-1.208-3.424-3.12h9.618v-1.108c0-3.65-2.518-6.242-6.093-6.242zm-3.474 4.934c.453-1.41 1.712-2.517 3.373-2.517 1.763 0 2.946.956 3.248 2.517h-6.621zM124.84 40.61c-3.626 0-6.571 2.644-6.571 6.595 0 3.952 2.945 6.595 6.42 6.595 2.744 0 4.481-1.032 5.74-3.172l-2.517-1.258c-.781.982-1.486 1.711-3.173 1.711-1.863 0-3.223-1.208-3.424-3.12h9.618v-1.108c0-3.65-2.518-6.242-6.093-6.242zm-3.475 4.934c.454-1.41 1.712-2.517 3.374-2.517 1.763 0 2.946.956 3.248 2.517h-6.622zM79.447 43.732h3.726v9.715h3.172v-9.715h3.727v-2.769H79.447v2.769z" fill="#101828"/><path d="M150.717 40.61c-3.424 0-6.823 2.216-6.823 6.595 0 4.38 3.399 6.595 6.823 6.595 3.424 0 6.823-2.215 6.823-6.595s-3.399-6.594-6.823-6.594zm0 10.22c-1.863 0-3.6-1.334-3.6-3.625 0-2.29 1.737-3.624 3.6-3.624s3.601 1.334 3.601 3.624-1.738 3.625-3.601 3.625zM170.163 40.96l-3.443 8.744-3.443-8.743h-4.147v12.461h3.016v-7.889l3.343 7.89h2.463l3.342-7.89v7.89h3.016V40.96h-4.147z" fill="#101828"/></svg>